<svg xmlns="http://www.w3.org/2000/svg" width="52" height="52" viewBox="0 0 52 52">
    <defs>
        <style>
            .cls-1{fill:#ececec}.cls-2{fill:#bfbfbf}.cls-3{fill:#757575}.cls-4{fill:#909090}.cls-5{clip-path:url(#clip-path)}.cls-6{clip-path:url(#clip-path-2)}.cls-7{clip-path:url(#clip-path-4)}.cls-8{fill:#fff}
        </style>
        <clipPath id="clip-path">
            <circle id="_170" cx="26" cy="26" r="26" class="cls-1" data-name="170" transform="translate(188 155)"/>
        </clipPath>
        <clipPath id="clip-path-2">
            <circle id="_170-2" cx="26" cy="26" r="26" class="cls-2" data-name="170" transform="translate(188 155)"/>
        </clipPath>
        <clipPath id="clip-path-4">
            <circle id="_170-4" cx="26" cy="26" r="26" class="cls-3" data-name="170" transform="translate(188 155)"/>
        </clipPath>
    </defs>
    <g id="anonymous_52" transform="translate(-196 -231)">
        <g id="그룹_11526" data-name="그룹 11526" transform="translate(-483 -1)">
            <g id="그룹_11507" data-name="그룹 11507" transform="translate(-136.642 102.89)">
                <path id="패스_5251" d="M842.01 144.25c-2.2 0-6.546 1.164-7.27 5.578a6.651 6.651 0 0 0-.063.787v.856h2.615v-.856a2.92 2.92 0 0 1 .075-.631c.483-2.53 3.165-3.205 4.673-3.205 2.578 0 4.6 1.663 4.6 3.773-.06 1.381-.9 2.114-2.165 3.223l-.094.082c-.183.162-.371.326-.537.478-2.663 2.223-2.953 4.02-3.031 5.816l-.015.357h2.602l.007-.337a4.62 4.62 0 0 1 1.955-3.788l.158-.133c1.747-1.473 3.729-3.142 3.729-5.609.003-3.583-3.177-6.391-7.239-6.391z" class="cls-4" data-name="패스 5251"/>
                <circle id="타원_1440" cx="1.711" cy="1.711" r="1.711" class="cls-4" data-name="타원 1440" transform="translate(840.353 162.048)"/>
            </g>
        </g>
        <g id="그룹_11561" data-name="그룹 11561" transform="translate(-712 67)">
            <g id="그룹_11510" data-name="그룹 11510" transform="translate(720 9)">
                <circle id="_170-5" cx="26" cy="26" r="26" class="cls-1" data-name="170" transform="translate(188 155)"/>
                <g id="마스크_그룹_12" class="cls-6" data-name="마스크 그룹 12">
                    <g id="그룹_11509" data-name="그룹 11509" transform="translate(141.859 30.891)">
                        <path id="패스_5260" d="M95.878 169.52a22.735 22.735 0 0 0-6.269-2.37c-2.272-.6-4.563-1.137-6.832-1.757a36.466 36.466 0 0 1-3.643-1.146c-.523-.288-.48-3.138-.48-3.138 0-.1.276-.355.341-.439.113-.146.224-.292.327-.445a5.174 5.174 0 0 0 .474-.88c.278-.653.453-1.343.665-2.018.3-.971.579-1.95.85-2.93 0-.011.443-.005.5-.015a1.179 1.179 0 0 0 .5-.189 2.765 2.765 0 0 0 .67-1.291 9.649 9.649 0 0 0 .407-1.623 13 13 0 0 0 .158-2.1 2.527 2.527 0 0 0-.532-1.994.813.813 0 0 0-.874-.048 2.446 2.446 0 0 0 .06-.482 15.922 15.922 0 0 0-.2-6.249 3.636 3.636 0 0 0-1.378-2.247 2.278 2.278 0 0 0-.863-.368 1.768 1.768 0 0 0-.307-.888 5.08 5.08 0 0 0-1.327-1.357 10.4 10.4 0 0 0-6.007-1.554l-.005.2c0-.126-.005-.2-.005-.2a10.4 10.4 0 0 0-6.007 1.554 5.08 5.08 0 0 0-1.327 1.357 1.768 1.768 0 0 0-.307.888 2.278 2.278 0 0 0-.863.368 3.637 3.637 0 0 0-1.378 2.247 15.924 15.924 0 0 0-.209 6.252 2.446 2.446 0 0 0 .06.482.813.813 0 0 0-.874.048 2.526 2.526 0 0 0-.532 1.994 13 13 0 0 0 .157 2.1 9.65 9.65 0 0 0 .407 1.623 2.764 2.764 0 0 0 .67 1.291 1.179 1.179 0 0 0 .5.189c.06.01.5 0 .5.015.271.98.545 1.96.85 2.93.212.676.387 1.365.665 2.018a5.181 5.181 0 0 0 .474.88c.1.152.215.3.327.445.065.084.341.339.341.439 0 0-.016 2.94-.736 3.319a23.977 23.977 0 0 1-3.386.965c-2.268.62-4.56 1.152-6.832 1.757a22.735 22.735 0 0 0-6.269 2.37c-2.561 1.584-4.2 3.884-4.2 6.721h55.933c.002-2.844-1.632-5.144-4.194-6.724z" class="cls-2" data-name="패스 5260"/>
                    </g>
                </g>
            </g>
        </g>
        <g id="그룹_11598" data-name="그룹 11598" transform="translate(-878 45)">
            <g id="그룹_11589" data-name="그룹 11589" transform="translate(886 31)">
                <g id="그룹_11510-2" data-name="그룹 11510">
                    <circle id="_170-6" cx="26" cy="26" r="26" class="cls-1" data-name="170" transform="translate(188 155)"/>
                    <g id="마스크_그룹_12-2" class="cls-7" data-name="마스크 그룹 12">
                        <g id="그룹_11509-2" data-name="그룹 11509" transform="translate(141.859 30.891)">
                            <path id="패스_5260-2" d="M95.878 169.52a22.735 22.735 0 0 0-6.269-2.37c-2.272-.6-4.563-1.137-6.832-1.757a36.466 36.466 0 0 1-3.643-1.146c-.523-.288-.48-3.138-.48-3.138 0-.1.276-.355.341-.439.113-.146.224-.292.327-.445a5.174 5.174 0 0 0 .474-.88c.278-.653.453-1.343.665-2.018.3-.971.579-1.95.85-2.93 0-.011.443-.005.5-.015a1.179 1.179 0 0 0 .5-.189 2.765 2.765 0 0 0 .67-1.291 9.649 9.649 0 0 0 .407-1.623 13 13 0 0 0 .158-2.1 2.527 2.527 0 0 0-.532-1.994.813.813 0 0 0-.874-.048 2.446 2.446 0 0 0 .06-.482 15.922 15.922 0 0 0-.2-6.249 3.636 3.636 0 0 0-1.378-2.247 2.278 2.278 0 0 0-.863-.368 1.768 1.768 0 0 0-.307-.888 5.08 5.08 0 0 0-1.327-1.357 10.4 10.4 0 0 0-6.007-1.554l-.005.2c0-.126-.005-.2-.005-.2a10.4 10.4 0 0 0-6.007 1.554 5.08 5.08 0 0 0-1.327 1.357 1.768 1.768 0 0 0-.307.888 2.278 2.278 0 0 0-.863.368 3.637 3.637 0 0 0-1.378 2.247 15.924 15.924 0 0 0-.209 6.252 2.446 2.446 0 0 0 .06.482.813.813 0 0 0-.874.048 2.526 2.526 0 0 0-.532 1.994 13 13 0 0 0 .157 2.1 9.65 9.65 0 0 0 .407 1.623 2.764 2.764 0 0 0 .67 1.291 1.179 1.179 0 0 0 .5.189c.06.01.5 0 .5.015.271.98.545 1.96.85 2.93.212.676.387 1.365.665 2.018a5.181 5.181 0 0 0 .474.88c.1.152.215.3.327.445.065.084.341.339.341.439 0 0-.016 2.94-.736 3.319a23.977 23.977 0 0 1-3.386.965c-2.268.62-4.56 1.152-6.832 1.757a22.735 22.735 0 0 0-6.269 2.37c-2.561 1.584-4.2 3.884-4.2 6.721h55.933c.002-2.844-1.632-5.144-4.194-6.724z" class="cls-3" data-name="패스 5260"/>
                        </g>
                    </g>
                </g>
            </g>
            <path id="패스_5340" d="M2.566-3.7a3.3 3.3 0 0 1-.193-1.16 3.4 3.4 0 0 1 1.38-2.575 5.643 5.643 0 0 0 1.187-1.3 1.979 1.979 0 0 0 .246-.932 1.327 1.327 0 0 0-.448-1.046 1.689 1.689 0 0 0-1.16-.4 4.02 4.02 0 0 0-2.831 1.19V-12.3a5.858 5.858 0 0 1 3.1-.844 4.254 4.254 0 0 1 2.764.826 2.814 2.814 0 0 1 1.015 2.312A3.414 3.414 0 0 1 7.242-8.4a5.973 5.973 0 0 1-1.476 1.65 5.088 5.088 0 0 0-1.1 1.169 1.866 1.866 0 0 0-.237.914 2.035 2.035 0 0 0 .237.967zm-.307 2.549a1.25 1.25 0 0 1 .426-.949 1.5 1.5 0 0 1 1.059-.4 1.453 1.453 0 0 1 1.033.4 1.257 1.257 0 0 1 .417.954 1.266 1.266 0 0 1-.409.958 1.344 1.344 0 0 1-.954.387A1.623 1.623 0 0 1 2.689-.2a1.244 1.244 0 0 1-.43-.951z" class="cls-8" data-name="패스 5340" transform="translate(1096 219)"/>
        </g>
    </g>
</svg>
