<svg xmlns="http://www.w3.org/2000/svg" width="30" height="30" viewBox="0 0 30 30">
    <defs>
        <style>
            .cls-1{fill:none}.cls-2{fill:#909090}
        </style>
    </defs>
    <g id="file" transform="translate(-154 -1921)">
        <g id="그룹_1397" data-name="그룹 1397" transform="translate(-416 1247)">
            <circle id="타원_321" cx="15" cy="15" r="15" class="cls-1" data-name="타원 321" transform="translate(570 674)"/>
            <g id="그룹_1396" data-name="그룹 1396" transform="translate(405 488)">
                <path id="패스_504" d="M182.743 193.406a3.6 3.6 0 0 0-4.169.595 3.375 3.375 0 0 0-1.017 2.415v7.3a2.03 2.03 0 0 0 1.219 1.761 2.921 2.921 0 0 0 .732.171l.066.006h.368c.058-.005.116-.012.172-.022a2.168 2.168 0 0 0 1.827-2.127v-4.373a.41.41 0 0 0-.409-.36h-.632a.41.41 0 0 0-.409.36v4.373a.714.714 0 0 1-.365.622.726.726 0 0 1-.365.1.738.738 0 0 1-.517-.21.715.715 0 0 1-.214-.509V196.6a2.04 2.04 0 0 1 3.162-1.658 1.7 1.7 0 0 1 .857 1.478v7.911a3.378 3.378 0 0 1-.964 2.288 3.34 3.34 0 0 1-2.325.947 3.263 3.263 0 0 1-3.288-3.236v-5.03a.411.411 0 0 0-.414-.407h-.634a.411.411 0 0 0-.414.407V204.384a4.713 4.713 0 0 0 4.74 4.616c.123 0 .245 0 .365-.013a4.706 4.706 0 0 0 4.385-4.661v-8.1a3.12 3.12 0 0 0-1.757-2.82z" class="cls-2" data-name="패스 504"/>
            </g>
        </g>
    </g>
</svg>
