<svg xmlns="http://www.w3.org/2000/svg" width="14" height="10" viewBox="0 0 14 10">
    <defs>
        <style>
            .cls-1{fill:#999}
        </style>
    </defs>
    <g id="그룹_1565" data-name="그룹 1565" transform="translate(-732.377 -777.919)">
        <path id="패스_143" d="M9.9 2.725a.327.327 0 0 1-.24.56H7.731v10.059a.668.668 0 0 1-.679.656H.34a.327.327 0 0 1-.24-.56l.906-.875a.4.4 0 0 1 .24-.1h4.9V3.286H4.217a.327.327 0 0 1-.24-.56L6.7.1a.348.348 0 0 1 .48 0z" class="cls-1" data-name="패스 143" transform="rotate(90 -15.771 762.148)"/>
    </g>
</svg>
